<svg t="1513921816950" class="icon" style="" viewBox="0 0 1024 1024" version="1.1" xmlns="http://www.w3.org/2000/svg" p-id="4729" xmlns:xlink="http://www.w3.org/1999/xlink" width="48" height="48"><defs><style type="text/css"></style></defs><path d="M68.394507 590.621723c-37.073658 90.766542-43.465668 176.419476-14.062422 191.7603 20.454432 11.505618 53.692884-14.062422 84.374532-60.084894 11.505618 51.13608 42.187266 95.88015 84.374532 132.953808-44.74407 16.619226-74.147316 44.74407-74.147316 75.425718 0 51.13608 79.260924 93.323346 176.419476 93.323346 88.209738 0 161.078652-33.238452 175.141074-77.982522 3.835206 0 17.897628 0 20.454432 0 14.062422 44.74407 86.931336 77.982522 175.141074 77.982522 98.436954 0 176.419476-40.908864 176.419476-93.323346 0-30.681648-29.403246-58.806492-74.147316-75.425718 42.187266-37.073658 72.868914-81.817728 84.374532-132.953808 30.681648 46.022472 62.641698 71.590512 84.374532 60.084894 30.681648-15.340824 24.289638-102.27216-14.062422-191.7603-29.403246-70.31211-69.033708-122.726592-99.715356-134.23221 0-3.835206 1.278402-8.948814 1.278402-14.062422 0-26.846442-7.670412-52.414482-20.454432-72.868914 0-1.278402 0-2.556804 0-5.113608 0-12.78402-2.556804-24.289638-7.670412-34.516854-7.670412-184.089888-125.283396-329.827715-315.765293-329.827715-190.481898 0-308.094881 145.737828-315.765293 329.827715-5.113608 10.227216-7.670412 21.732834-7.670412 34.516854 0 1.278402 0 2.556804 0 5.113608-12.78402 20.454432-20.454432 46.022472-20.454432 72.868914 0 5.113608 0 8.948814 0 14.062422C138.706617 467.895131 97.797753 519.031211 68.394507 590.621723z" p-id="4730"></path></svg>