<?xml version="1.0" standalone="no"?><!DOCTYPE svg PUBLIC "-//W3C//DTD SVG 1.1//EN" "http://www.w3.org/Graphics/SVG/1.1/DTD/svg11.dtd"><svg t="1511341335415" class="icon" style="" viewBox="0 0 1024 1024" version="1.1" xmlns="http://www.w3.org/2000/svg" p-id="5487" xmlns:xlink="http://www.w3.org/1999/xlink" width="32" height="32"><defs><style type="text/css"></style></defs><path d="M569.6 422.4l-38.4-12.8h-51.2v83.2h51.2l38.4-12.8c6.4-12.8 12.8-19.2 12.8-25.6a44.8 44.8 0 0 0-12.8-32z" fill="#D66247" p-id="5488"></path><path d="M940.8 0H83.2A83.2 83.2 0 0 0 0 83.2v857.6A83.2 83.2 0 0 0 83.2 1024h857.6a83.2 83.2 0 0 0 83.2-83.2V83.2A89.6 89.6 0 0 0 940.8 0z m-576 492.8a57.6 57.6 0 0 1-25.6 32l-32 19.2H204.8v115.2H128V352h121.6l64 12.8a70.4 70.4 0 0 1 38.4 32 89.6 89.6 0 0 1 19.2 51.2 102.4 102.4 0 0 1-6.4 44.8z m281.6 0a57.6 57.6 0 0 1-25.6 32l-32 19.2H480v115.2H409.6V352h121.6l64 12.8a70.4 70.4 0 0 1 38.4 32 89.6 89.6 0 0 1 19.2 51.2 57.6 57.6 0 0 1-6.4 44.8zM896 416h-83.2v249.6h-70.4V416h-76.8v-64H896v64z" fill="#D66247" p-id="5489"></path><path d="M281.6 422.4l-38.4-12.8h-44.8v83.2h51.2l38.4-12.8c6.4-12.8 12.8-19.2 12.8-25.6a25.6 25.6 0 0 0-19.2-32z" fill="#D66247" p-id="5490"></path></svg>