<?xml version="1.0" standalone="no"?><!DOCTYPE svg PUBLIC "-//W3C//DTD SVG 1.1//EN" "http://www.w3.org/Graphics/SVG/1.1/DTD/svg11.dtd"><svg t="1511342445722" class="icon" style="" viewBox="0 0 1024 1024" version="1.1" xmlns="http://www.w3.org/2000/svg" p-id="6372" xmlns:xlink="http://www.w3.org/1999/xlink" width="32" height="32"><defs><style type="text/css"></style></defs><path d="M662.973992 949.809277c-35.902698 0-65.109903-29.197996-65.109904-65.086367v-27.604708a216.818117 216.818117 0 0 1-33.380248-13.465686l-19.301602 19.288298c-12.289907 12.289907-28.639271 19.058055-46.031382 19.058055-17.386996 0-33.734312-6.767124-46.034453-19.056008-12.305257-12.300141-19.080567-28.646434-19.080567-46.03343s6.77531-33.737382 19.077497-46.029336l17.583471-17.570167a216.706577 216.706577 0 0 1-15.46625-35.023678h-23.941272c-35.902698 0-65.11195-29.197996-65.11195-65.087391 0-35.890418 29.209252-65.089437 65.11195-65.089437h20.536732a216.191854 216.191854 0 0 1 15.083533-38.808888l-13.796214-13.785981c-12.302187-12.292977-19.077497-28.638247-19.077497-46.029336 0-17.389042 6.77531-33.736359 19.077497-46.030359 12.296047-12.290931 28.64541-19.060101 46.036499-19.060102 17.390066 0 33.741475 6.771217 46.037523 19.063172l12.110829 12.102642a216.306464 216.306464 0 0 1 40.565904-17.251919v-16.638959c0-35.888372 29.207206-65.087391 65.109904-65.087391 35.903721 0 65.11502 29.199019 65.11502 65.087391v16.638959a216.316697 216.316697 0 0 1 40.563857 17.251919l12.114922-12.106736c12.295024-12.288884 28.64541-19.059078 46.034453-19.059078 17.391089 0 33.741475 6.769171 46.037523 19.059078 12.304234 12.291954 19.079544 28.640294 19.079544 46.031383-0.001023 17.391089-6.77838 33.737382-19.082614 46.030359l-13.793145 13.782912a216.144782 216.144782 0 0 1 15.082511 38.808887h20.537755c35.900651 0 65.11195 29.197996 65.11195 65.088414 0 35.889395-29.211299 65.088414-65.11195 65.088414h-23.942295a216.557174 216.557174 0 0 1-15.46625 35.023678l17.58347 17.570168c12.30321 12.291954 19.080567 28.640294 19.080568 46.029336s-6.774287 33.738405-19.080568 46.031383c-12.294001 12.289907-28.641317 19.058055-46.032406 19.058054-17.386996 0-33.737382-6.767124-46.035476-19.056008l-19.301601-19.292392a216.538755 216.538755 0 0 1-33.378202 13.467733v27.604708c-0.002047 35.890418-29.213345 65.088414-65.117066 65.088414zM651.58357 838.662875v46.060035c0 6.268774 5.109368 11.365862 11.390422 11.365862 6.284123 0 11.394515-5.097088 11.394514-11.365862v-46.081525c-1.196245-13.533224 7.971555-25.962302 21.468964-28.674063 19.869536-3.991917 38.642089-11.536754 55.797817-22.425755 11.093662-7.04137 25.391297-4.939499 34.043351 4.358261l33.062 33.045627c2.904143 2.901073 6.300496 3.333932 8.064676 3.333932 1.765203 0 5.157463-0.432859 8.058536-3.333932 2.902096-2.899026 3.338025-6.277984 3.338025-8.036024 0-1.755993-0.435928-5.132904-3.332908-8.02886l-32.637328-32.611745c-9.197476-9.18929-10.491958-23.64656-3.075035-34.323737 11.974729-17.23964 20.442588-36.285414 25.168216-56.608275 0.177032-0.769526 0.390903-1.529843 0.635473-2.279927 3.774977-11.533684 14.697747-18.879999 26.419719-18.490119h43.283806c6.281053 0 11.391445-5.101181 11.391445-11.368932 0-6.269797-5.110391-11.368932-11.391445-11.368932H854.054935c-12.43317 0.651846-23.946388-7.4159-27.285437-19.808138a26.456558 26.456558 0 0 1-0.623193-2.932796c-3.734044-21.405519-11.542894-41.566698-23.215748-59.936067-6.749728-10.621918-5.216815-24.50716 3.683902-33.403784l28.250415-28.231995c2.90005-2.899026 3.335978-6.275937 3.335978-8.029884 0-1.755993-0.435928-5.134951-3.332908-8.030907-2.908236-2.90619-6.30152-3.339048-8.066723-3.339048-1.76418 0-5.157463 0.432859-8.061606 3.334955l-27.150361 27.131941c-9.184173 9.18008-23.620977 10.473539-34.295083 3.070942-18.638499-12.928451-39.316447-21.74014-61.457724-26.188453-13.497409-2.711761-22.665209-15.142885-21.468964-28.675086v-35.120892c0-6.26775-5.110391-11.366885-11.394515-11.366885-6.281053 0-11.390421 5.099135-11.390421 11.366885v35.100426c1.206478 13.536294-7.959276 25.982768-21.467941 28.695552-22.141276 4.447289-42.819225 13.260002-61.46284 26.189476-10.671037 7.399527-25.106818 6.108115-34.293037-3.071965l-27.15036-27.130918c-2.90619-2.904143-6.29845-3.338025-8.060583-3.338024-1.765203 0-5.157463 0.432859-8.061606 3.334954-2.90005 2.899026-3.332908 6.277984-3.332909 8.035001 0 1.755993 0.432859 5.133927 3.328815 8.02886l27.228132 27.212782c7.783267 6.986111 10.993378 18.116613 7.537673 28.483728a27.015284 27.015284 0 0 1-2.812045 5.912663 0.234337 0.234337 0 0 0-0.016373 0.023536c-11.750625 18.501376-19.588127 38.812981-23.289426 60.367903-2.212388 12.890588-13.390985 22.313192-26.471908 22.313191h-41.97295c-6.282077 0-11.391445 5.101181-11.391445 11.369956 0 6.269797 5.109368 11.367909 11.391445 11.367908h44.177152c12.490475 0 23.332405 8.609075 26.161846 20.775163 4.726651 20.324908 13.19451 39.368636 25.164123 56.603159 7.419993 10.677177 6.122441 25.134447-3.071966 34.323736l-32.634258 32.610722c-2.899026 2.894933-3.330862 6.27389-3.330861 8.029884 0 1.75804 0.432859 5.136997 3.332908 8.036023 2.90312 2.901073 6.296403 3.333932 8.061606 3.333932 1.76418 0 5.15644-0.432859 8.055467-3.330862l33.057906-33.03437c8.15882-8.779967 21.388123-11.181667 32.224936-5.43478 0.627287 0.332575 1.242294 0.689708 1.840928 1.070379 17.147542 10.882861 35.917024 18.425651 55.787584 22.417569 13.511735 2.714831 22.677489 15.159258 21.47101 28.697599z m11.390422-87.708598c-56.952106 0-103.288434-46.313815-103.288435-103.241362 0-56.925501 46.335305-103.237269 103.288435-103.237269 56.9562 0 103.295598 46.311769 103.295597 103.237269 0 56.927547-46.339398 103.241362-103.295597 103.241362z m0-152.757103c-27.331485 0-49.567929 22.212908-49.567929 49.516764 0 27.306926 22.236444 49.522903 49.567929 49.522903 27.335578 0 49.575092-22.215978 49.575092-49.522903 0-27.303856-22.239514-49.516764-49.575092-49.516764z" p-id="6373"></path><path d="M399.095046 959.016986h-0.039909l-308.116473-0.448208c-14.817474-0.021489-26.819832-12.042267-26.819833-26.860764V90.210581a26.858718 26.858718 0 0 1 26.860765-26.859741h0.011256l780.317025 0.337691a26.864858 26.864858 0 0 1 26.848485 26.977421l-1.193175 272.17796c-0.064468 14.792914-12.08013 26.741038-26.857695 26.741037h-0.119726c-14.832823-0.065492-26.805506-12.143575-26.742061-26.977421l1.076518-245.211794-726.479863-0.315179v787.80558l281.294595 0.409323c14.83487 0.022513 26.843368 12.06478 26.820855 26.898626-0.023536 14.823614-12.043291 26.822902-26.860764 26.822902z" p-id="6374"></path><path d="M689.841919 289.309128h-443.306478c-14.83487 0-26.860764-12.025894-26.860764-26.859741 0-14.83487 12.024871-26.859741 26.860764-26.859741h443.305455c14.83487 0 26.860764 12.024871 26.860764 26.859741 0.001023 14.833847-12.024871 26.859741-26.859741 26.859741zM374.686123 457.630718H246.535441c-14.83487 0-26.860764-12.024871-26.860764-26.859741 0-14.83487 12.024871-26.859741 26.860764-26.859741h128.150682c14.83487 0 26.859741 12.024871 26.859741 26.859741 0 14.83487-12.024871 26.859741-26.859741 26.859741zM310.610782 625.953332h-64.075341c-14.83487 0-26.860764-12.024871-26.860764-26.860765 0-14.832823 12.024871-26.858718 26.860764-26.858718h64.075341c14.833847 0 26.860764 12.025894 26.860764 26.858718 0 14.835893-12.026918 26.860764-26.860764 26.860765z" p-id="6375"></path></svg>