<?xml version="1.0" standalone="no"?><!DOCTYPE svg PUBLIC "-//W3C//DTD SVG 1.1//EN" "http://www.w3.org/Graphics/SVG/1.1/DTD/svg11.dtd"><svg t="1511342382127" class="icon" style="" viewBox="0 0 1365 1024" version="1.1" xmlns="http://www.w3.org/2000/svg" p-id="5648" xmlns:xlink="http://www.w3.org/1999/xlink" width="42.65625" height="32"><defs><style type="text/css"></style></defs><path d="M1089.621333 44.373333H273.051307C210.85696 44.373333 160.426667 95.39072 160.426667 158.30528v712.067413c0 62.912853 50.430293 113.93024 112.62464 113.93024H1089.621333c62.20288 0 112.62976-51.017387 112.62976-113.93024V158.30528C1202.251093 95.39072 1151.82592 44.373333 1089.621333 44.373333zM890.22464 560.69632L618.047147 735.115947c-18.83648 12.07296-41.43616 13.25056-61.54752 3.24608-20.150613-9.977173-31.824213-28.19584-31.824214-49.580374v-348.859733c0-21.38624 11.64288-39.645867 31.78496-49.621333 20.150613-9.97376 42.750293-8.81664 61.55264 3.247786L890.1888 467.968c16.836267 10.840747 26.05568 27.22816 26.05568 46.385493-0.003413 19.193173-9.222827 35.539627-26.01984 46.342827zM681.33888 514.33984z" fill="" p-id="5649"></path></svg>