<?xml version="1.0" standalone="no"?><!DOCTYPE svg PUBLIC "-//W3C//DTD SVG 1.1//EN" "http://www.w3.org/Graphics/SVG/1.1/DTD/svg11.dtd"><svg t="1511341446651" class="icon" style="" viewBox="0 0 1024 1024" version="1.1" xmlns="http://www.w3.org/2000/svg" p-id="3539" xmlns:xlink="http://www.w3.org/1999/xlink" width="32" height="32"><defs><style type="text/css"></style></defs><path d="M700.903727 592.768423l-118.951092 117.664035c-0.09032 0.09032-0.270959 0.180639-0.383859 0.338699-9.325513 9.325513-9.325513 24.476648 0 33.937641 9.325513 9.325513 24.521808 9.325513 33.960221 0 0.632238-0.609658 0.835458-1.445116 1.422536-2.077354l71.69129-71.66871 33.847321-34.00538c0 0 23.302492 21.857376 23.82183 21.563837 8.919074 4.245028 19.780022 2.867652 27.095921-4.493407 9.325513-9.370673 9.325513-24.521808 0-33.9828l-16.98011-16.93495c0 0-3.138611-3.54505-4.877266-5.328864C737.618699 583.939669 716.393561 582.313914 700.903727 592.768423zM796.484587 710.838897l10.860948 10.951268c9.325513 9.348093 24.521808 9.348093 33.937641 0 9.325513-9.325513 9.325513-24.499228 0-33.937641l-10.951268-10.996428-0.09032 0.13548c-0.1129-0.13548-0.203219-0.338699-0.293539-0.429019-9.370673-9.325513-24.566968-9.325513-34.00538 0-9.325513 9.325513-9.325513 24.521808 0 33.937641C796.213627 710.613098 796.303947 710.771158 796.484587 710.838897zM327.318721 188.000529c-53.017685 0-96.009879 42.992194-96.009879 96.009879 0 53.062845 42.992194 96.009879 96.009879 96.009879s96.009879-42.947034 96.009879-96.009879C423.3286 230.992723 380.336406 188.000529 327.318721 188.000529zM327.318721 316.028754c-17.657508 0-32.018346-14.338258-32.018346-32.018346 0-17.634928 14.360838-31.973186 32.018346-31.973186s31.995766 14.338258 31.995766 31.973186C359.314487 301.690496 344.976229 316.028754 327.318721 316.028754zM871.359647 27.999118 167.29473 27.999118c-70.765513 0-128.005645 57.240132-128.005645 128.028225l0 704.042337c0 70.697773 57.330452 128.028225 128.005645 128.028225L871.359647 988.097905c70.697773 0 128.028225-57.330452 128.028225-128.028225L999.387872 156.027343C999.387872 85.23925 942.05742 27.999118 871.359647 27.999118zM935.35118 860.06968c0 35.382756-28.608776 64.036692-63.991533 64.036692L167.29473 924.106373c-35.382756 0-64.014112-28.653936-64.014112-64.036692l0-75.891158 170.297861-163.004542c5.735303-4.786946 9.415832-5.125645 15.173716-0.09032l130.782977 106.961147c11.267387 7.948137 23.573451 17.770408 33.237663 17.770408 9.641632 0 21.134818-3.29667 33.531202-15.693054l237.653804-237.676384c1.264476 0.13548 2.483793 0.429019 3.793429 0.429019 0.383859 0 0.835458-0.09032 1.219316-0.09032l206.380595 221.554311L935.35118 860.06968zM935.35118 620.383682l-170.862359-183.394223c-6.141742-14.157619-20.231621-24.137949-36.714972-24.137949-14.767277 0-27.479779 8.015877-34.344079 19.915502L459.546814 666.627387c-6.77398 4.832106-6.77398 4.832106-14.157619 0l-132.747431-108.677222c-7.293319-9.709372-18.854245-16.076913-31.905447-16.076913-6.66108 0-12.915722 1.828975-18.470386 4.741786l-6.254642 3.974068c-2.032194 1.558015-3.793429 3.36441-5.532084 5.261125l-147.198589 140.989107L103.280617 156.027343c0-35.382756 28.631356-64.036692 64.014112-64.036692L871.359647 91.99065c35.382756 0 63.991533 28.653936 63.991533 64.036692L935.35118 620.383682z" fill="#ea5719" p-id="3540"></path></svg>