<?xml version="1.0" standalone="no"?><!DOCTYPE svg PUBLIC "-//W3C//DTD SVG 1.1//EN" "http://www.w3.org/Graphics/SVG/1.1/DTD/svg11.dtd"><svg t="1511341649584" class="icon" style="" viewBox="0 0 1024 1024" version="1.1" xmlns="http://www.w3.org/2000/svg" p-id="10226" xmlns:xlink="http://www.w3.org/1999/xlink" width="32" height="32"><defs><style type="text/css"></style></defs><path d="M109.226667 0H455.111111c-0.227556 23.36237 0.075852 46.724741 0.151704 70.087111 23.893333 0.303407 47.786667 0.303407 71.68 0 0.303407-23.36237 0.910222-46.724741 0.530963-70.087111h386.389333c58.17837 6.523259 107.178667 56.661333 110.136889 115.52237v799.09926c-6.826667 55.902815-53.172148 102.324148-109.074963 109.37837H109.75763C53.627259 1017.476741 7.054222 970.903704 0 914.849185V109.985185C6.447407 53.703111 53.096296 6.97837 109.226667 0m418.171259 69.859556c-0.151704 23.438222-0.151704 46.952296 0 70.390518 23.969185 0.606815 47.862519 0.682667 71.831704 0 0.303407-23.438222 0.151704-46.952296-0.758519-70.46637-23.665778 0.606815-47.407407 0.606815-71.073185 0.075852M455.111111 140.932741c-0.227556 23.36237-0.075852 46.724741 0.303408 70.087111 23.74163-0.227556 47.407407-0.227556 71.149037 0.227555 1.517037-23.514074 0.986074-47.179852 0.682666-70.693926-24.045037-0.227556-48.090074-0.151704-72.135111 0.37926m72.438519 69.859555c-0.379259 23.514074-0.379259 46.952296 0 70.466371 23.893333 0 47.710815-0.075852 71.528296-0.227556 0.227556-23.36237 0.303407-46.648889 0-70.011259-23.817481-0.151704-47.710815-0.303407-71.528296-0.227556m-72.362667 70.466371c-0.151704 23.286519-0.151704 46.648889 0 69.935407 23.969185 0.303407 48.014222 0.455111 72.059259 0.303407 0.455111-23.514074 0.379259-47.028148-0.303407-70.46637l-71.755852 0.227556m72.135111 70.542222c0 23.286519-0.075852 46.497185 0 69.783704 23.969185 0.530963 48.014222 0.455111 71.983407-0.151704-0.075852-23.210667-0.075852-46.421333 0-69.632-23.969185-0.758519-47.93837-0.758519-71.983407 0M455.111111 422.039704c-0.227556 23.438222-0.075852 46.800593 0.379259 70.238815 23.74163-0.303407 47.483259-0.303407 71.300741 0.151703 1.061926-23.514074 0.910222-47.028148 0.455111-70.542222-24.045037-0.379259-48.090074-0.303407-72.135111 0.151704m72.590222 69.935407c-0.530963 23.514074-0.606815 46.952296-0.151703 70.46637l71.528296-0.227555c0.227556-23.286519 0.303407-46.573037 0.075852-69.859556-23.817481-0.379259-47.634963-0.530963-71.452445-0.379259m-72.362666 70.238815c-0.075852 68.266667-0.910222 136.533333 0.303407 204.724148-0.83437 11.605333 9.784889 21.845333 21.162667 21.390222 33.60237 1.061926 67.356444 1.061926 100.958815 0 11.45363 0.455111 22.224593-10.315852 21.010963-21.845333 0.530963-44.752593 1.668741-89.505185-0.910223-134.181926-23.058963 1.137778-46.042074 0.910222-69.101037 0.83437-2.654815-23.589926-0.530963-47.407407-1.972148-71.073185-23.817481 0.227556-47.634963 0.227556-71.452444 0.151704z" fill="#D4B68B" p-id="10227"></path><path d="M485.376 720.592593c27.83763 0 55.751111 0 83.588741-0.075852v45.662815c-27.83763-0.151704-55.675259 0-83.512889 0-0.075852-15.246222-0.075852-30.416593-0.075852-45.586963z" fill="#D4B68B" p-id="10228"></path><path d="M455.111111 0h72.362667c0.379259 23.36237-0.227556 46.724741-0.530963 70.087111-23.893333 0.303407-47.786667 0.303407-71.68 0-0.075852-23.36237-0.379259-46.724741-0.151704-70.087111zM527.397926 69.859556c23.665778 0.530963 47.407407 0.530963 71.073185-0.075852 0.910222 23.514074 1.061926 47.028148 0.758519 70.46637-23.969185 0.682667-47.862519 0.606815-71.831704 0-0.151704-23.438222-0.151704-46.952296 0-70.390518zM455.111111 140.932741c24.045037-0.530963 48.090074-0.606815 72.135111-0.37926 0.303407 23.514074 0.83437 47.179852-0.682666 70.693926-23.74163-0.455111-47.407407-0.455111-71.149037-0.227555-0.379259-23.36237-0.530963-46.724741-0.303408-70.087111zM527.54963 210.792296c23.817481-0.075852 47.710815 0.075852 71.528296 0.227556 0.303407 23.36237 0.227556 46.648889 0 70.011259-23.817481 0.151704-47.634963 0.227556-71.528296 0.227556-0.379259-23.514074-0.379259-46.952296 0-70.466371zM455.186963 281.258667l71.755852-0.227556c0.682667 23.438222 0.758519 46.952296 0.303407 70.46637-24.045037 0.151704-48.090074 0-72.059259-0.303407-0.151704-23.286519-0.151704-46.648889 0-69.935407zM527.322074 351.800889c24.045037-0.758519 48.014222-0.758519 71.983407 0-0.075852 23.210667-0.075852 46.421333 0 69.632-23.969185 0.606815-48.014222 0.682667-71.983407 0.151704-0.075852-23.286519 0-46.497185 0-69.783704zM455.111111 422.039704c24.045037-0.455111 48.090074-0.530963 72.135111-0.151704 0.455111 23.514074 0.606815 47.028148-0.455111 70.542222-23.817481-0.455111-47.559111-0.455111-71.300741-0.151703-0.455111-23.438222-0.606815-46.800593-0.379259-70.238815zM527.701333 491.975111c23.817481-0.151704 47.634963 0 71.452445 0.379259 0.227556 23.286519 0.151704 46.573037-0.075852 69.859556l-71.528296 0.227555c-0.455111-23.514074-0.379259-46.952296 0.151703-70.46637zM455.338667 562.213926c23.817481 0.075852 47.634963 0.075852 71.452444-0.151704 1.441185 23.665778-0.682667 47.483259 1.972148 71.073185 23.058963 0.075852 46.042074 0.303407 69.101037-0.83437 2.578963 44.676741 1.441185 89.429333 0.910223 134.181926 1.21363 11.529481-9.557333 22.300444-21.010963 21.845333-33.60237 1.061926-67.356444 1.061926-100.958815 0-11.377778 0.455111-21.997037-9.784889-21.162667-21.390222-1.21363-68.190815-0.379259-136.457481-0.303407-204.724148M485.376 720.592593c0 15.17037 0 30.340741 0.075852 45.586963 27.83763 0 55.675259-0.151704 83.512889 0v-45.662815c-27.83763 0.075852-55.751111 0.075852-83.588741 0.075852z" fill="#FFFFFF" p-id="10229"></path></svg>