<?xml version="1.0" standalone="no"?><!DOCTYPE svg PUBLIC "-//W3C//DTD SVG 1.1//EN" "http://www.w3.org/Graphics/SVG/1.1/DTD/svg11.dtd"><svg t="1511341477520" class="icon" style="" viewBox="0 0 1024 1024" version="1.1" xmlns="http://www.w3.org/2000/svg" p-id="4895" xmlns:xlink="http://www.w3.org/1999/xlink" width="32" height="32"><defs><style type="text/css"></style></defs><path d="M128 0h768a128 128 0 0 1 128 128v768a128 128 0 0 1-128 128H128a128 128 0 0 1-128-128V128a128 128 0 0 1 128-128z m573.44 744.96L824.32 288h-98.56l-74.88 314.88h-1.28L571.52 288h-94.08l-79.36 311.04h-1.28L324.48 288H224l120.96 456.96h101.76l76.16-311.04h1.28l77.44 311.04h99.84z" fill="#5083D2" p-id="4896"></path></svg>