<?xml version="1.0" standalone="no"?><!DOCTYPE svg PUBLIC "-//W3C//DTD SVG 1.1//EN" "http://www.w3.org/Graphics/SVG/1.1/DTD/svg11.dtd"><svg t="1511342197983" class="icon" style="" viewBox="0 0 1024 1024" version="1.1" xmlns="http://www.w3.org/2000/svg" p-id="3646" xmlns:xlink="http://www.w3.org/1999/xlink" width="32" height="32"><defs><style type="text/css"></style></defs><path d="M929.997046 48.113811 124.33682 48.113811c-24.720008 0-44.75839 20.038382-44.75839 44.75839l0 805.66125c0 24.717961 20.038382 44.75839 44.75839 44.75839l805.660226 0c24.720008 0 44.759413-20.040429 44.759413-44.75839L974.756459 92.872201C974.756459 68.152193 954.717054 48.113811 929.997046 48.113811zM626.629737 744.362138 278.506085 744.362138 278.506085 644.897799l348.123652 0L626.629737 744.362138zM775.825734 545.434483 278.506085 545.434483l0-99.464339 497.320673 0L775.825734 545.434483zM775.825734 346.507852 278.506085 346.507852l0-99.466386 497.320673 0L775.825734 346.507852z" p-id="3647" fill="#8a8a8a"></path></svg>